<svg id="Capa_1" enable-background="new 0 0 512 512" height="512" viewBox="0 0 512 512" width="512" xmlns="http://www.w3.org/2000/svg"><g><g><path d="m355.003 363.145c-22.692-56.426-66.486-57.835-66.486-57.835s-14.585-20.184-19.499-38.45c-9.545-35.483-2.374-51.538-2.374-51.538s36.462-11.147 31.02-72.674c-7.624-86.179-107.872-130.341-192.206-98.368-84.334 31.974-126.781 126.26-94.808 210.594 23.207 61.211 113.048 172.335 198.608 212.711 98.268 42.3 166.468-52.908 145.745-104.44z" fill="#ffcbbe"/></g><g><path d="m355.003 363.145c-22.692-56.426-66.486-57.835-66.486-57.835s-14.585-20.184-19.499-38.45c-9.545-35.483-2.374-51.538-2.374-51.538s36.462-11.147 31.019-72.674c-6.512-73.621-80.62-116.566-154.658-107.59 59.162 7.23 110.246 47.037 115.603 107.59 2.835 32.045-5.698 50.424-14.526 60.679-14.38 16.705-20.258 39.109-14.909 60.491.25.997.513 2.011.79 3.041.19.707.395 1.418.613 2.129 5.663 18.502 19.416 33.547 37.256 41.039 14.697 6.172 34.955 20.391 48.115 53.117 15.515 38.579-18.813 101.633-78.282 113.146 82.56 15.039 135.997-66.747 117.338-113.145z" fill="#ffa68d"/></g><g><g><path d="m266.643 215.322s.13-.04.366-.125c-.122.043-.243.081-.366.125z" fill="#ffa68d"/></g><g><path d="m288.482 305.262c-.72-1.004-14.678-20.609-19.464-38.401-9.545-35.483-2.374-51.538-2.374-51.538-16.929 5.997-22.195 3.187-42.611 3.401-49.169.514-79.505 35.104-64.978 77.403s60.245 27.364 89.838 13.929l14.437-2.783c8.31-1.603 16.745-2.269 25.152-2.011z" fill="#ffa68d"/></g></g><g><path d="m222.654 96.362c-24.715-15.51-64.805-18.35-97.307-6.028-61.463 23.302-92.398 92.018-69.096 153.481 9.061 23.898 46.585 86.279 76.173 123.218 4.455 5.562 12.608 6.386 18.123 1.874l.002-.001c5.155-4.218 6.277-11.652 2.6-17.206-14.478-21.869-37.922-57.911-42.428-69.795-20.444-53.925.866-113.427 47.909-142.949 1.736-1.089 4.015-.013 4.293 2.018 2.857 20.869 20.827 36.922 42.521 36.747 23.6-.191 41.777-19.833 40.253-43.385-1.032-15.964-10.61-29.161-23.043-37.974z" fill="#ffa68d"/></g><g><g><path d="m245.697 134.335c-1.032-15.963-10.61-29.16-23.043-37.973-17.497-10.98-42.699-15.601-67.46-12.997 15.228 1.628 29.438 6.029 40.542 12.997 12.433 8.813 22.01 22.01 23.043 37.973 1.228 18.98-10.342 35.413-27.23 41.181 4.36 1.463 9.033 2.244 13.895 2.205 23.6-.192 41.776-19.834 40.253-43.386z" fill="#f59380"/></g></g><g><path d="m363.4 278.515c-1.871 0-3.744-.694-5.201-2.092-2.993-2.873-3.091-7.628-.218-10.622 13.49-14.055 18.771-33.713 14.126-52.584-4.646-18.87-18.448-33.831-36.921-40.019-3.934-1.318-6.055-5.575-4.736-9.509 1.318-3.934 5.573-6.058 9.51-4.737 23.382 7.833 40.853 26.777 46.736 50.674 5.883 23.899-.8 48.788-17.875 66.579-1.475 1.536-3.447 2.31-5.421 2.31z" fill="#dfdfdf"/></g><g><path d="m407.659 321.072c-1.871 0-3.744-.694-5.201-2.092-2.993-2.873-3.091-7.628-.218-10.622 28.171-29.353 39.196-70.407 29.496-109.819-9.701-39.412-38.524-70.657-77.102-83.581-3.934-1.318-6.055-5.575-4.736-9.509 1.318-3.934 5.573-6.057 9.51-4.737 43.486 14.568 75.978 49.797 86.916 94.236s-1.489 90.725-33.244 123.813c-1.475 1.537-3.447 2.311-5.421 2.311z" fill="#dfdfdf"/></g><g><path d="m450.419 365.509c-1.917 0-3.835-.73-5.302-2.19-2.939-2.928-2.949-7.684-.021-10.624 43.2-43.374 60.935-104.831 47.44-164.397s-55.984-107.379-113.66-127.9c-3.91-1.39-5.95-5.686-4.56-9.596 1.391-3.909 5.688-5.951 9.596-4.559 62.554 22.256 108.639 74.12 123.277 138.735 14.639 64.616-4.594 131.277-51.449 178.319-1.466 1.474-3.394 2.212-5.321 2.212z" fill="#dfdfdf"/></g><g><g><path d="m266.643 215.322s.13-.04.366-.125c-.122.043-.243.081-.366.125z" fill="#ffa68d"/></g><g><path d="m269.018 266.86c-9.545-35.483-2.374-51.538-2.374-51.538-10.339 3.663-16.331 4.039-24.078 3.827 2.077 6.139 3.221 12.708 3.221 19.548 0 33.676-27.3 60.976-60.976 60.976-9.525 0-18.539-2.187-26.57-6.082.255.842.522 1.686.814 2.535 14.527 42.299 60.245 27.363 89.838 13.929l14.437-2.783c8.312-1.602 16.746-2.268 25.153-2.01-.721-1.005-14.679-20.609-19.465-38.402z" fill="#f59380"/></g></g></g></svg>