<svg id="Layer_1" enable-background="new 0 0 512 512" height="512" viewBox="0 0 512 512" width="512" xmlns="http://www.w3.org/2000/svg"><g><g><path d="m280 196h-48c-5.523 0-10 4.477-10 10s4.477 10 10 10h48c5.523 0 10-4.477 10-10s-4.477-10-10-10z"/><path d="m482 106h-136v-26c0-18.748-15.252-34-34-34h-112c-18.748 0-34 15.252-34 34v26h-136c-16.542 0-30 13.458-30 30v80c0 18.878 10.518 35.342 26 43.849v176.151c0 16.542 13.458 30 30 30h400c16.542 0 30-13.458 30-30v-176.151c15.482-8.507 26-24.971 26-43.849v-80c0-16.542-13.458-30-30-30zm-336 160c0 11.028-8.972 20-20 20s-20-8.972-20-20v-140h40zm-40 34.619c5.888 3.415 12.717 5.381 20 5.381s14.112-1.966 20-5.381v15.381c0 11.028-8.972 20-20 20s-20-8.972-20-20zm60-174.619h180v120h-180zm200 174.619c5.888 3.415 12.717 5.381 20 5.381s14.112-1.966 20-5.381v15.381c0 11.028-8.972 20-20 20s-20-8.972-20-20zm40-34.619c0 11.028-8.972 20-20 20s-20-8.972-20-20v-140h40zm-220-186c0-7.72 6.28-14 14-14h112c7.72 0 14 6.28 14 14v26h-140zm-166 56c0-5.514 4.486-10 10-10h56v120h-36c-16.542 0-30-13.458-30-30zm436 310h-400c-5.514 0-10-4.486-10-10v-20h420v20c0 5.514-4.486 10-10 10zm10-50h-420v-130.174c1.321.105 2.652.174 4 .174h36v50c0 22.056 17.944 40 40 40s40-17.944 40-40v-50h180v50c0 22.056 17.944 40 40 40s40-17.944 40-40v-50h36c1.348 0 2.679-.069 4-.174zm26-180c0 16.542-13.458 30-30 30h-36v-120h56c5.514 0 10 4.486 10 10z"/></g><circle cx="126" cy="256" r="10"/><circle cx="386" cy="256" r="10"/></g></svg>