<?xml version="1.0" encoding="iso-8859-1"?>
<!-- Generator: Adobe Illustrator 19.0.0, SVG Export Plug-In . SVG Version: 6.00 Build 0)  -->
<svg version="1.1" id="Capa_1" xmlns="http://www.w3.org/2000/svg" xmlns:xlink="http://www.w3.org/1999/xlink" x="0px" y="0px"
	 viewBox="0 0 512.001 512.001" style="enable-background:new 0 0 512.001 512.001;" xml:space="preserve">
<g>
	<g>
		<path d="M508.021,172.891c-3.292-2.656-7.865-3.104-11.625-1.156l-118.219,61.681L264.792,68.485
			c-3.979-5.792-13.604-5.792-17.583,0L133.823,233.416L15.604,171.735c-3.771-1.948-8.344-1.5-11.625,1.156
			c-3.302,2.656-4.719,7.021-3.604,11.104l60.896,223.292c2.51,9.229,7.417,17.677,14.188,24.448
			c10.396,10.396,24.219,16.125,38.927,16.125h283.229c14.708,0,28.531-5.729,38.927-16.125
			c6.771-6.771,11.677-15.219,14.188-24.448l60.896-223.292C512.74,179.912,511.323,175.547,508.021,172.891z M266.667,108.875
			l92.456,134.482l-92.456,48.24V108.875z M245.334,108.875v182.721l-92.456-48.24L245.334,108.875z M81.854,401.683l-54.469-199.74
			l207.957,108.507L87.197,412.3C84.869,409.051,82.912,405.554,81.854,401.683z M397.615,426.526H114.386
			c-2.911,0-5.724-0.493-8.47-1.204L256,322.141l150.085,103.181C403.339,426.033,400.526,426.526,397.615,426.526z
			 M430.146,401.683c-1.057,3.871-3.014,7.368-5.342,10.617l-148.146-101.85l207.957-108.507L430.146,401.683z"/>
	</g>
</g>
<g>
</g>
<g>
</g>
<g>
</g>
<g>
</g>
<g>
</g>
<g>
</g>
<g>
</g>
<g>
</g>
<g>
</g>
<g>
</g>
<g>
</g>
<g>
</g>
<g>
</g>
<g>
</g>
<g>
</g>
</svg>
