<svg height="512" viewBox="0 0 58 60" width="512" xmlns="http://www.w3.org/2000/svg"><g id="010---Alien-Space-Ship" fill="none"><path id="Shape" d="m56 42h-10v-7c0-2.7614237 2.2385763-5 5-5s5 2.2385763 5 5z" fill="#95a5a5"/><path id="Shape" d="m12 42h-10v-7c0-2.7614237 2.23857625-5 5-5s5 2.2385763 5 5z" fill="#95a5a5"/><path id="Rectangle-path" d="m2 38h10v4.25h-10z" fill="#56595e"/><path id="Rectangle-path" d="m45.98 37.88h10v4.25h-10z" fill="#56595e"/><path id="Shape" d="m56 42h-10c0 3.62-1.36 7-5 7-5 0-6-2-6-5 0-7 5-15 5-23h-6c0 6.63-2.24 12-5 12s-5-5.37-5-12h-6c0 7.91 5 16.06 5 23 0 3-1 5-6 5-3.63 0-5-3.38-5-7h-10c0 5-2 5-2 9 0 4.26 4.8 6.29 10.37 7.23 6 1 11.46.77 26.63.77 7.23 0 21-.81 21-8 0-4-2-4-2-9z" fill="#547580"/><path id="Shape" d="m58 51c-6.91 0-7.61 1.91-10.69 3.09l-.24-3.09c-.0462562-.6116486-.3706305-1.1682453-.88-1.51l-2.19-1.49c1.57-1.39 2-4 2-6h10c0 5 2 5 2 9z" fill="#547580"/><path id="Shape" d="m58 51c-6.91 0-7.61 1.91-10.69 3.09l-.24-3.09c-.0462562-.6116486-.3706305-1.1682453-.88-1.51l-2.19-1.49c1.57-1.39 2-4 2-6h10c0 5 2 5 2 9z" fill="#3f5c6c"/><path id="Shape" d="m29 1 1.5 10c-2.76 0-6.5 3.37-6.5 10h-6c0-13.24 5.37-12.85 10.18-19.56.1842809-.27266038.4909175-.43719706.82-.44z" fill="#bdc3c7"/><path id="Shape" d="m40 21h-6c0-6.63-2.24-9-5-9v-11.00001448c.3253865-.00173393.6312778.15494209.82.42001448 4.81 6.73 10.18 6.34 10.18 19.58z" fill="#95a5a5"/><path id="Shape" d="m40 21c0 6.33-3.13 12.65-4.43 18.48-2.9 2.75-6.57 4.68-6.57 9.52v-16c2.76 0 5-5.37 5-12z" fill="#3f5c6c"/><ellipse id="Oval" cx="29" cy="21" fill="#35495e" rx="5" ry="12"/><path id="Shape" d="m10.37 58.23c-5.57-.94-10.37-2.97-10.37-7.23 6.7 0 7.44 1.75 10.64 3.07.1.05.08-.35-.27 4.16z" fill="#3f5c6c"/><path id="Shape" d="m29 49c-2.209139 0-4 1.790861-4 4v2c-8.3 0-11.39.22-14.31-.91l.24-3.09c.0462562-.6116486.3706305-1.1682453.88-1.51l2.19-1.49c.8396225.6970127 1.9100944 1.0538367 3 1 5 0 6-2 6-5-.0235179-1.5191266-.2112765-3.0312537-.56-4.51 2.9 2.75 6.56 4.67 6.56 9.51z" fill="#3f5c6c"/><path id="Shape" d="m25 55v4c-4.8898099.1727244-9.7853369-.0849349-14.63-.77l.32-4.14c3.11 1.2 6.74.91 14.31.91z" fill="#2c3e50"/><path id="Shape" d="m47.31 54.09c-3.11 1.2-6.74.91-14.31.91 0-2 .23-3.41-1.17-4.83-.7507884-.7499543-1.7688148-1.1708345-2.83-1.17 0-4.84 3.66-6.76 6.56-9.51-.3487235 1.4787463-.5364821 2.9908734-.56 4.51 0 3 1 5 6 5 1.0909902.0618594 2.1643234-.2959183 3-1l2.23 1.51c.4889723.3458414.79722.892614.84 1.49z" fill="#35495e"/><path id="Shape" d="m47.63 58.23c-4.8448613.683016-9.7402081.9406658-14.63.77v-4c8.3 0 11.39.22 14.31-.91z" fill="#2c3e50"/><path id="Shape" d="m58 51c0 4.26-4.8 6.29-10.37 7.23l-.32-4.14c3.08-1.18 3.78-3.09 10.69-3.09z" fill="#2c3e50"/><path id="Shape" d="m7 27c-.55228475 0-1-.4477153-1-1v-2c0-.5522847.44771525-1 1-1s1 .4477153 1 1v2c0 .5522847-.44771525 1-1 1z" fill="#7f8284"/><path id="Shape" d="m7 26c-1.1045695 0-2 .8954305-2 2v2.42c1.27525232-.5565657 2.72474768-.5565657 4 0v-2.42c0-1.1045695-.8954305-2-2-2z" fill="#bdc3c7"/><path id="Shape" d="m56 43h-10c-.5522847 0-1-.4477153-1-1s.4477153-1 1-1h10c.5522847 0 1 .4477153 1 1s-.4477153 1-1 1z" fill="#e64c3c"/><path id="Shape" d="m56 39h-10c-.5522847 0-1-.4477153-1-1s.4477153-1 1-1h10c.5522847 0 1 .4477153 1 1s-.4477153 1-1 1z" fill="#e64c3c"/><path id="Shape" d="m12 43h-10c-.55228475 0-1-.4477153-1-1s.44771525-1 1-1h10c.5522847 0 1 .4477153 1 1s-.4477153 1-1 1z" fill="#e64c3c"/><path id="Shape" d="m12 39h-10c-.55228475 0-1-.4477153-1-1s.44771525-1 1-1h10c.5522847 0 1 .4477153 1 1s-.4477153 1-1 1z" fill="#e64c3c"/><path id="Shape" d="m51 27c-.5522847 0-1-.4477153-1-1v-2c0-.5522847.4477153-1 1-1s1 .4477153 1 1v2c0 .5522847-.4477153 1-1 1z" fill="#7f8284"/><path id="Shape" d="m53 28v2.42c-1.2752523-.5565657-2.7247477-.5565657-4 0v-2.42c0-1.1045695.8954305-2 2-2s2 .8954305 2 2z" fill="#bdc3c7"/><path id="Rectangle-path" d="m25 55h8v4h-8z" fill="#84b5cb"/><path id="Shape" d="m33 53v2h-8v-2c0-2.209139 1.790861-4 4-4s4 1.790861 4 4z" fill="#9fc9d3"/><path id="Shape" d="m34 21c-3.2 1.3333333-6.8 1.3333333-10 0 0-6.63 2.24-12 5-12s5 5.37 5 12z" fill="#9fc9d3"/><path id="Shape" d="m34 21c0 6.63-2.24 12-5 12s-5-5.37-5-12c3.2 1.3333333 6.8 1.3333333 10 0z" fill="#35495e"/><g fill="#65ddb9"><path id="Shape" d="m9 22c-.40626507.0023626-.77358004-.2413038-.92937095-.6165185s-.069089-.807391.21937095-1.0934815l1-1c.25365857-.2536586.62337399-.3527235.969878-.259878.3465041.0928454.6171546.3634959.71.71.0928455.346504-.0062194.7162194-.259878.969878-1.06 1.06-1.19 1.29-1.71 1.29z"/><path id="Shape" d="m5 22c-.53 0-.67-.26-1.71-1.29-.39212217-.3921222-.39212217-1.0278778 0-1.42s1.02787783-.3921222 1.42 0l1 1c.28845995.2860905.37516186.7182668.21937095 1.0934815s-.52310588.6188811-.92937095.6165185z"/><path id="Shape" d="m7 5c-.55228475 0-1-.44771525-1-1v-3c0-.55228475.44771525-1 1-1s1 .44771525 1 1v3c0 .55228475-.44771525 1-1 1z"/><path id="Shape" d="m7 18c-.55228475 0-1-.4477153-1-1v-9c0-.55228475.44771525-1 1-1s1 .44771525 1 1v9c0 .5522847-.44771525 1-1 1z"/><path id="Shape" d="m49 22c-.53 0-.67-.26-1.71-1.29-.3921222-.3921222-.3921222-1.0278778 0-1.42s1.0278778-.3921222 1.42 0l1 1c.2884599.2860905.3751619.7182668.219371 1.0934815-.155791.3752147-.5231059.6188811-.929371.6165185z"/><path id="Shape" d="m53 22c-.4062651.0023626-.77358-.2413038-.929371-.6165185-.1557909-.3752147-.0690889-.807391.219371-1.0934815l1-1c.3921222-.3921221 1.0278778-.3921221 1.42 0 .3921221.3921222.3921221 1.0278778 0 1.42-1.06 1.06-1.19 1.29-1.71 1.29z"/><path id="Shape" d="m51 10c-.5522847 0-1-.44771525-1-1v-8c0-.55228475.4477153-1 1-1s1 .44771525 1 1v8c0 .55228475-.4477153 1-1 1z"/><path id="Shape" d="m51 18c-.5522847 0-1-.4477153-1-1v-4c0-.5522847.4477153-1 1-1s1 .4477153 1 1v4c0 .5522847-.4477153 1-1 1z"/></g></g></svg>