<svg id="Capa_1" enable-background="new 0 0 512 512" height="512" viewBox="0 0 512 512" width="512" xmlns="http://www.w3.org/2000/svg"><g><path d="m23.875 51.888h235.358v355.237h-235.358z" fill="#f8f6f2"/><g fill="#fd9e28"><path d="m241 0h30v52.33h-30z"/><path d="m241 407.125h30v104.875h-30z"/><path d="m107.446 439.562h112.392v30h-112.392z" transform="matrix(.536 -.844 .844 .536 -307.807 349.007)"/></g><path d="m333.358 398.366h30v112.392h-30z" fill="#fd8d34" transform="matrix(.844 -.536 .536 .844 -189.403 257.602)"/><g><path d="m256 51.888h232.125v355.237h-232.125z" fill="#e7e3db"/></g><g fill="#fd8d34"><path d="m256 0h15v52.33h-15z"/><path d="m256 407.125h15v104.875h-15z"/></g><path d="m0 392.125h259.233v30h-259.233z" fill="#fcbe2c"/><path d="m256 392.125h256v30h-256z" fill="#fd9e28"/><path d="m0 37.33h259.233v30h-259.233z" fill="#fcbe2c"/><g><path d="m256 37.33h256v30h-256z" fill="#fd9e28"/></g><path d="m259.233 357.308h-41.76v-144.854h41.76z" fill="#ad4583"/><path d="m136.212 357.308h-40.02v-177.319h-36.454l74.619-89.935 17.335 98.732z" fill="#5cd4ab"/><path d="m171.245 357.308h-37.666l.778-267.254 73.063 89.281h-36.175z" fill="#32bea6"/><g><path d="m256 212.454h38.527v144.854h-38.527z" fill="#823462"/></g><path d="m374.716 357.308h-42.089v-89.629h42.089z" fill="#7d89e5"/><path d="m409.681 357.308h-38.527v-89.629h38.527z" fill="#6260d0"/><path d="m342.578 98.783h82.766v30h-82.766z" fill="#d9d1c2"/><path d="m342.578 158.787h82.766v30h-82.766z" fill="#d9d1c2"/></g></svg>