<?xml version="1.0" encoding="UTF-8"?>
<!DOCTYPE svg PUBLIC "-//W3C//DTD SVG 1.1//EN" "http://www.w3.org/Graphics/SVG/1.1/DTD/svg11.dtd">
<!-- Creator: CorelDRAW 2021 (64-Bit) -->
<svg xmlns="http://www.w3.org/2000/svg" xml:space="preserve" width="135.45mm" height="117.46mm" version="1.1" style="shape-rendering:geometricPrecision; text-rendering:geometricPrecision; image-rendering:optimizeQuality; fill-rule:evenodd; clip-rule:evenodd"
viewBox="0 0 3351.3 2906.2"
 xmlns:xlink="http://www.w3.org/1999/xlink"
 xmlns:xodm="http://www.corel.com/coreldraw/odm/2003">
 <defs>
  <style type="text/css">
   <![CDATA[
    .fil0 {fill:black}
   ]]>
  </style>
 </defs>
 <g id="Layer_x0020_1">
  <metadata id="CorelCorpID_0Corel-Layer"/>
  <g id="_2332491348096">
   <path class="fil0" d="M2068.38 2709.84l0 -1119.28c30.38,-0.68 43.76,-10.74 72,-13.09 8.79,13.12 14.78,18.78 24.88,34.03 75.11,113.42 127.59,10.73 125.92,116.26l-0.62 550.44c-0.05,27.9 -3.38,30.78 10.26,48.65 42.97,56.3 95.53,-5.83 101.38,-9.74l0 392.73c-28.46,-19.05 -51.6,-48.32 -76.91,-73.63 -92.33,-92.33 -85.8,-94.2 -176.73,-3.28 -25.74,25.74 -51.53,57.72 -80.18,76.91zm333.82 -562.91l0 -510.55c30.02,2.5 18.34,6.56 43.57,21.88 48.96,29.73 120.41,23.79 166.03,-15.19 40.59,-34.67 28.6,-73.17 84.52,-59.48 17.28,4.23 17.73,6.48 39.7,6.97l0 556.37c-38.78,-25.97 -117.82,-137.45 -163.64,-137.45 -57.5,0 -126.07,107.91 -170.18,137.45zm-517.1 -1551.28c116.91,-27.24 132.01,-27.87 163.64,-163.64 42.27,-9.85 138.36,39.8 201.61,-60.21 60.27,-95.3 75.01,64.81 213.31,-2.69 11.07,-5.4 15.99,-8.94 24.51,-14.76 59.1,-40.37 47.83,13.12 92.32,49.92 73.42,60.73 127.15,16.56 175.17,27.74 29.71,127.54 36.1,133.92 163.64,163.64 9.6,41.22 -31.34,130.19 44.52,191.12 23.91,19.21 47.12,18.1 47.12,51.06 0,11.43 -80.53,100.45 -14,197.27 14.23,20.72 14,0.28 14,51.46 -24.32,12.87 -26.87,10.64 -47.64,30.91 -95.61,93.28 -16.33,155.86 -44.92,183.68 -11.36,11.05 -121.04,9.16 -150.84,104.93 -9.39,30.2 -2.06,35.75 -18.42,66.67 -72.45,0 -129.33,-38.54 -201.42,66.95 -45.51,66.6 -39.33,-21.13 -152.04,-21.13 -84.3,0 -100.12,86.01 -139.82,22 -77.92,-125.64 -181.43,-48.7 -207.09,-74.36 -7.16,-7.16 -5.88,-74.06 -47.73,-115.91 -41.67,-41.67 -108.5,-40.32 -115.91,-47.73 -24.94,-24.95 45.96,-102.18 -47.24,-188.4 -27.55,-25.49 -21.68,-7.03 -50.94,-40.69 7.2,-30.92 83.11,-100.03 25.98,-196.16 -9.61,-16.17 -16.58,-28.26 -25.98,-46.02 43.94,-50.56 60.72,-33.55 87.23,-89.5 32.48,-68.57 -2.71,-87.5 10.96,-146.14zm261.82 -274.91c-62.45,0 -134.56,-34.69 -197.64,57.63 -43.85,64.16 13.45,88.24 -69.78,100.4 -66.45,9.71 -115.87,76.24 -118,136.97 -0.82,23.34 11.69,49.14 12.33,78.09 -63.46,42.49 -98.18,57.73 -98.18,150.55 0,50.58 28.29,71.59 45.82,104.73 -16.52,31.22 -72.15,101.44 -34.88,178.88 28.81,59.89 81.01,65.39 87.25,89.48 0.01,0.03 -62.82,171.13 119.87,207.41 26.13,5.19 26.25,0.18 33.76,25.15l23.1 88.18 0 916.37 -1688.74 0c-89,0 -150.55,-85.92 -150.55,-196.36l0 -1957.11c0,-57.87 15.36,-91.03 39.02,-124.62 18.59,-26.4 66.92,-58.66 111.53,-58.66l2827.66 0c86.31,0 150.55,83.39 150.55,183.27l0 1963.65c0,103.81 -63.64,189.82 -150.55,189.82l-576 0 0 -255.28 57.55 -53.75c20.99,30.69 75.92,79.22 104.46,107.75 20.47,20.47 85.16,96.55 112.91,96.55 81.49,0 65.45,-102.41 65.45,-183.27l-0.07 -628.44 26.25 -104.66c24.28,-11.65 51.52,-9.44 76.7,-21.49 125.91,-60.24 62.92,-165.46 80.39,-201.06 5.58,-15.42 -0.53,-5.38 11.06,-15.12 18.36,-15.43 80.58,-33.85 80.58,-135.43 0,-52.29 -45.82,-98.96 -45.82,-104.73 0,-16.44 94.66,-121.53 14.88,-211.25 -24.87,-27.98 -38.28,-31.17 -67.25,-50.57 0,-31.71 8.24,-42.87 8.99,-72.98 1.68,-67.68 -47.11,-127.07 -109.94,-140.25 -32.78,-6.88 -44.46,1.04 -53.53,-31.56 -10.09,-36.26 -0.11,-31.2 -19.87,-65.22 -57.9,-99.68 -144.53,-63.08 -198.74,-63.08 -41.01,-61.25 -94.16,-136.19 -205.33,-80.97 -34.84,17.3 -32.02,28.61 -49.94,28.61 -12.53,0 -113.72,-91.15 -201.26,-17.98 -29.75,24.87 -36.25,36.77 -54.02,70.35zm-2146.92 -58.91l0 2048.74c0,38.67 14.18,75.98 27.25,103.66 14.91,31.57 30.87,51.47 55.08,75.83 43.29,43.57 114.13,82.33 199.13,82.33l1669.1 0 0 261.82c0,40.85 18.73,72 58.91,72 50.81,0 155.07,-151.18 222.55,-196.36 67.48,45.19 171.73,196.36 222.55,196.36 35.09,0 58.91,-15.4 58.91,-52.36l0 -281.46 556.37 0c114.08,0 204.33,-67.65 252.66,-153.16 13.3,-23.54 28.79,-74.36 28.79,-108.66l0 -2048.74c0,-96.12 -71.52,-196.27 -156.96,-235.77 -23.9,-11.05 -69.96,-26.05 -104.86,-26.05l-2827.66 0c-88.68,0 -161.06,50.44 -210.52,116.76 -28.25,37.88 -51.3,92.78 -51.3,145.06z"/>
   <path class="fil0" d="M333.82 713.46l0 1145.46c0,141.3 128.61,268.37 301.09,268.37l1034.19 0c14.97,0 34.31,-7.99 43.3,-15.6 36.05,-30.54 22.24,-79.84 -10.19,-96.06 -28.77,-14.39 -927.5,-6.16 -1014.94,-6.16 -74.02,0 -108.97,5.27 -159.45,-23.82 -20.93,-12.06 -33.44,-25.18 -47.55,-44.09 -10.38,-13.92 -28.63,-49.13 -28.63,-69.55l0 -1165.1c0,-53.42 33.25,-87.6 64.22,-112.51 39.47,-31.75 76.18,-31.54 145.24,-31.49l890.19 0c88.43,0.13 124.36,0.29 124.36,-72 0,-20.85 -33.35,-45.82 -58.91,-45.82l-1001.46 0c-86,0 -150.41,35.51 -194.77,80.14 -47.52,47.8 -86.68,113.07 -86.68,188.23z"/>
   <path class="fil0" d="M2408.74 1282.92c-57.06,0 -99.83,-8.5 -141.91,-28.27 -60.61,-28.48 -95.43,-56.3 -134.06,-108.12 -14.06,-18.86 -21.34,-32.23 -31.79,-53.3 -162.56,-327.86 270.85,-643.98 535.26,-378.17 213.58,214.7 54.68,567.86 -227.5,567.86zm-6.54 117.82c230.96,0 445.09,-202.35 445.09,-412.37 0,-99.52 2.22,-139.98 -41.34,-233.57 -26.9,-57.8 -87.88,-132.34 -140.56,-167.08 -22.69,-14.96 -38.86,-27.81 -64.45,-40.28 -150.46,-73.3 -334.73,-56.08 -469.99,45.31 -59.38,44.5 -116.24,116.59 -145.05,188.77 -11.06,27.71 -19.44,53.72 -25.21,86.07 -17.59,98.62 -5.95,182.49 34.81,272.22 11.61,25.56 24.95,48.97 41.03,70.24 47.73,63.15 107.99,120.53 183.22,150.6 48.87,19.54 115.79,40.09 182.46,40.09z"/>
   <path class="fil0" d="M615.28 1839.29l0 32.73c26.26,17.58 27.72,35.29 67.29,27.87 39,-7.31 104.48,-49.65 134.23,-75.08 3.12,-2.67 11.81,-10.22 13.94,-12.24l12.8 -13.38c14.07,-15.49 14.9,-11.04 20.47,-31.9 50.63,13.52 71.24,78.55 170.18,78.55 42.83,0 83.09,-32.73 85.09,-32.73 9.01,0 55.94,21.81 71.88,26.3 128.2,36.15 184.79,45.7 320.85,45.7 67.42,0 71.95,-102.8 6.24,-110.97l-91.71 -6.47c-50.92,-4.01 -204.2,-31.34 -239.35,-55.2 -28.31,-19.21 -50.06,-97.66 -113.81,-56.73 -27.89,17.9 -19.21,44.28 -32.65,72.28 -41.26,0 -37.79,-4.84 -65.66,-25.98 -50.52,-38.33 -65.28,-103.24 -81.7,-121.22 -26.34,-28.86 -95.61,-27.66 -101.14,49.25 -1.82,25.31 -0.54,36.94 -9.05,56.41 -16.93,38.74 -62.25,71.44 -100.09,89.73 -32.6,15.76 -67.83,17.28 -67.83,63.08z"/>
   <path class="fil0" d="M615.28 1034.19c0,33.78 -5.13,85.09 52.36,85.09l785.46 0c75.65,0 81.59,-117.82 -19.64,-117.82 -97.06,0 -743.36,-9.1 -784.25,7.76 -17.42,7.18 -17.29,13.82 -33.94,24.97z"/>
   <path class="fil0" d="M615.28 811.64c0,30.33 -7.32,85.09 58.91,85.09l778.91 0c72.25,0 81.56,-117.82 -6.54,-117.82l-759.28 0c-46.43,0 -46,15.31 -72,32.73z"/>
   <path class="fil0" d="M615.28 1282.92c0,35.09 15.4,58.91 52.36,58.91l785.46 0c28.16,0 49.28,-18.08 55.63,-43.05 8.64,-33.96 -16.32,-48.62 -29.45,-68.22l-811.64 0c-31.66,0 -52.36,20.7 -52.36,52.36z"/>
  </g>
 </g>
</svg>
